<?xml version="1.0" encoding="UTF-8" standalone="no"?>
<!-- Created with Inkscape (http://www.inkscape.org/) -->

<svg
   width="256"
   height="256"
   viewBox="0 0 256 256"
   version="1.1"
   id="svg5"
   inkscape:version="1.2 (dc2aeda, 2022-05-15)"
   sodipodi:docname="qrcode-icon.svg"
   xml:space="preserve"
   xmlns:inkscape="http://www.inkscape.org/namespaces/inkscape"
   xmlns:sodipodi="http://sodipodi.sourceforge.net/DTD/sodipodi-0.dtd"
   xmlns:xlink="http://www.w3.org/1999/xlink"
   xmlns="http://www.w3.org/2000/svg"
   xmlns:svg="http://www.w3.org/2000/svg"><sodipodi:namedview
     id="namedview7"
     pagecolor="#ffffff"
     bordercolor="#000000"
     borderopacity="0.25"
     inkscape:showpageshadow="2"
     inkscape:pageopacity="0.0"
     inkscape:pagecheckerboard="0"
     inkscape:deskcolor="#d1d1d1"
     inkscape:document-units="mm"
     showgrid="false"
     inkscape:zoom="2.8284271"
     inkscape:cx="65.053824"
     inkscape:cy="121.62237"
     inkscape:window-width="1901"
     inkscape:window-height="956"
     inkscape:window-x="1734"
     inkscape:window-y="25"
     inkscape:window-maximized="0"
     inkscape:current-layer="layer2"
     showguides="true"><sodipodi:guide
       position="220,220"
       orientation="0,-1"
       id="guide26698"
       inkscape:locked="false" /><sodipodi:guide
       position="210.8,210.8"
       orientation="0,-1"
       id="guide28823"
       inkscape:locked="false" /><sodipodi:guide
       position="210.8,210.8"
       orientation="-1,0"
       id="guide28825"
       inkscape:locked="false" /><sodipodi:guide
       position="201.6,201.6"
       orientation="-1,0"
       id="guide28827"
       inkscape:locked="false" /><sodipodi:guide
       position="201.6,201.6"
       orientation="0,-1"
       id="guide28829"
       inkscape:locked="false" /><sodipodi:guide
       position="192.4,192.4"
       orientation="-1,0"
       id="guide28831"
       inkscape:locked="false" /><sodipodi:guide
       position="192.4,192.4"
       orientation="0,-1"
       id="guide28833"
       inkscape:locked="false" /><sodipodi:guide
       position="183.2,183.2"
       orientation="-1,0"
       id="guide28835"
       inkscape:locked="false" /><sodipodi:guide
       position="183.2,183.2"
       orientation="0,-1"
       id="guide28837"
       inkscape:locked="false" /><sodipodi:guide
       position="220,220"
       orientation="-1,0"
       id="guide26704"
       inkscape:locked="false" /><sodipodi:guide
       position="36,36"
       orientation="0,-1"
       id="guide26700"
       inkscape:locked="false" /><sodipodi:guide
       position="36,36"
       orientation="-1,0"
       id="guide26702"
       inkscape:locked="false" /><sodipodi:guide
       position="100.4,100.4"
       orientation="0,-1"
       id="guide28785"
       inkscape:locked="false" /><sodipodi:guide
       position="100.4,100.4"
       orientation="-1,0"
       id="guide28787"
       inkscape:locked="false" /><sodipodi:guide
       position="155.6,155.6"
       orientation="0,-1"
       id="guide28789"
       inkscape:locked="false" /><sodipodi:guide
       position="155.6,155.6"
       orientation="-1,0"
       id="guide28791"
       inkscape:locked="false" /></sodipodi:namedview><defs
     id="defs2"><clipPath
       clipPathUnits="userSpaceOnUse"
       id="clipPath24477"><rect
         id="rect24483"
         width="72"
         height="72"
         x="184"
         y="184" /><rect
         id="rect24481"
         width="72"
         height="72"
         x="184"
         y="0" /><rect
         id="rect24485"
         width="72"
         height="72"
         x="0"
         y="184" /><rect
         id="rect24479"
         width="72"
         height="72"
         x="0"
         y="0" /></clipPath></defs><g
     inkscape:groupmode="layer"
     id="layer2"
     inkscape:label="Drawing"><path
       id="border"
       style="stroke:#000000;display:inline;fill:none;stroke-width:11;stroke-linejoin:round"
       d="m 40.5,5.5 h 175 c 19.39,0 35,15.61 35,35 v 175 c 0,19.39 -15.61,35 -35,35 h -175 c -19.39,0 -35,-15.61 -35,-35 v -175 c 0,-19.39 15.61,-35 35,-35 z"
       clip-path="url(#clipPath24477)" /><g
       id="qrcode"><path
         id="block1"
         d="M 54.4,54.4 H 72.8 V 72.8 H 54.4 Z M 36,36 v 4.6 50.6 H 91.2 V 36 Z m 9.2,9.2 H 82 V 82 H 45.2" /><use
         x="0"
         y="0"
         xlink:href="#block1"
         id="block2"
         transform="translate(128.8)" /><use
         x="0"
         y="0"
         xlink:href="#block1"
         id="block3"
         transform="translate(0,128.8)" /><path
         id="data"
         d="M 109.6 36 L 109.6 45.2 L 118.8 45.2 L 118.8 54.41 L 118.8 63.6 L 128 63.6 L 137.2 63.6 L 137.2 54.41 L 128 54.41 L 128 45.2 L 128 36 L 118.8 36 L 109.6 36 z M 137.2 63.6 L 137.2 72.8 L 128 72.8 L 128 82 L 137.2 82 L 137.2 91.2 L 146.4 91.2 L 146.4 82 L 146.4 72.8 L 155.6 72.8 L 155.6 63.6 L 146.4 63.6 L 137.2 63.6 z M 146.4 91.2 L 146.4 100.4 L 137.2 100.4 L 137.2 109.6 L 146.4 109.6 L 155.6 109.6 L 164.8 109.6 L 164.8 100.4 L 155.6 100.4 L 155.6 91.2 L 146.4 91.2 z M 137.2 100.4 L 137.2 91.2 L 128 91.2 L 128 100.4 L 137.2 100.4 z M 128 100.4 L 118.8 100.4 L 118.8 109.6 L 128 109.6 L 128 100.4 z M 118.8 100.4 L 118.8 91.2 L 109.6 91.2 L 109.6 100.4 L 118.8 100.4 z M 109.6 100.4 L 100.4 100.4 L 100.4 109.6 L 109.6 109.6 L 109.6 100.4 z M 100.4 109.6 L 91.2 109.6 L 91.2 100.4 L 82 100.4 L 82 109.6 L 72.8 109.6 L 72.8 100.4 L 63.6 100.4 L 54.41 100.4 L 45.2 100.4 L 45.2 109.6 L 54.41 109.6 L 63.6 109.6 L 63.6 118.8 L 63.6 128 L 54.41 128 L 54.41 118.8 L 45.2 118.8 L 45.2 128 L 36 128 L 36 137.2 L 45.2 137.2 L 54.41 137.2 L 63.6 137.2 L 63.6 146.4 L 54.41 146.4 L 45.2 146.4 L 45.2 155.6 L 54.41 155.6 L 63.6 155.6 L 72.8 155.6 L 72.8 146.4 L 72.8 137.2 L 82 137.2 L 82 128 L 72.8 128 L 72.8 118.8 L 82 118.8 L 91.2 118.8 L 91.2 128 L 91.2 137.2 L 100.4 137.2 L 100.4 128 L 109.6 128 L 109.6 118.8 L 100.4 118.8 L 100.4 109.6 z M 100.4 137.2 L 100.4 146.4 L 109.6 146.4 L 109.6 137.2 L 100.4 137.2 z M 100.4 146.4 L 91.2 146.4 L 91.2 155.6 L 100.4 155.6 L 100.4 146.4 z M 100.4 155.6 L 100.4 164.8 L 109.6 164.8 L 109.6 155.6 L 100.4 155.6 z M 91.2 146.4 L 91.2 137.2 L 82 137.2 L 82 146.4 L 91.2 146.4 z M 45.2 118.8 L 45.2 109.6 L 36 109.6 L 36 118.8 L 45.2 118.8 z M 118.8 63.6 L 109.6 63.6 L 109.6 72.8 L 100.4 72.8 L 100.4 82 L 109.6 82 L 118.8 82 L 118.8 72.8 L 118.8 63.6 z M 109.6 63.6 L 109.6 54.41 L 109.6 45.2 L 100.4 45.2 L 100.4 54.41 L 100.4 63.6 L 109.6 63.6 z M 146.4 36 L 146.4 45.2 L 146.4 54.41 L 155.6 54.41 L 155.6 45.2 L 155.6 36 L 146.4 36 z M 174 100.4 L 174 109.6 L 183.2 109.6 L 183.2 100.4 L 174 100.4 z M 192.4 100.4 L 192.4 109.6 L 201.6 109.6 L 201.6 100.4 L 192.4 100.4 z M 100.4 174 L 100.4 183.2 L 109.6 183.2 L 109.6 174 L 100.4 174 z M 100.4 192.4 L 100.4 201.6 L 109.6 201.6 L 109.6 192.4 L 100.4 192.4 z" /></g><g
       id="loupe"
       inkscape:transform-center-x="-14.583869"
       inkscape:transform-center-y="14.37928"
       transform="rotate(45,155.58662,155.60694)"><circle
         style="fill:none;stroke:#000000;stroke-width:11"
         id="path30573"
         cx="155.60001"
         cy="155.60001"
         r="32" /><rect
         style="fill:#000000;fill-opacity:1;stroke:none"
         id="rect34205"
         width="55"
         height="13"
         x="185.75"
         y="149.10001"
         ry="2.5"
         rx="2.5" /></g></g></svg>
